<?xml version="1.0" encoding="UTF-8" standalone="no"?>
<!DOCTYPE svg PUBLIC "-//W3C//DTD SVG 1.1//EN" "http://www.w3.org/Graphics/SVG/1.1/DTD/svg11.dtd">
<svg width="100%" height="100%" viewBox="0 0 1638 734" version="1.1" xmlns="http://www.w3.org/2000/svg" xmlns:xlink="http://www.w3.org/1999/xlink" xml:space="preserve" xmlns:serif="http://www.serif.com/" style="fill-rule:evenodd;clip-rule:evenodd;stroke-linecap:round;stroke-linejoin:round;stroke-miterlimit:1.5;">
    <g transform="matrix(1,0,0,1,-252.874,-1238.06)">
        <g>
            <g transform="matrix(1,-0.000507783,0.000507783,1,699.367,381.624)">
                <text x="632.366px" y="1552.56px" style="font-family:'007GoldenEye-Regular', '007 GoldenEye', sans-serif;font-size:1041.67px;fill:rgb(152,9,9);">7</text>
            </g>
            <g transform="matrix(1,0,0,1,237.852,1772.12)">
                <text x="0px" y="157.25px" style="font-family:'IBMPlexSans-Text', 'IBM Plex Sans', sans-serif;font-weight:450;font-size:212.5px;">Lic<tspan x="268.388px " y="157.25px ">e</tspan>nc<tspan x="613.488px " y="157.25px ">e</tspan> t<tspan x="855.95px " y="157.25px ">o</tspan></text>
                <text x="1025.53px" y="157.25px" style="font-family:'IBMPlexSans-Text', 'IBM Plex Sans', sans-serif;font-weight:450;font-size:212.5px;fill:rgb(108,9,9);">l</text>
                <text x="1082.69px" y="157.25px" style="font-family:'IBMPlexSans-Text', 'IBM Plex Sans', sans-serif;font-weight:450;font-size:212.5px;fill:rgb(152,9,9);">y</text>
                <text x="1189.15px" y="157.25px" style="font-family:'IBMPlexSans-Text', 'IBM Plex Sans', sans-serif;font-weight:450;font-size:212.5px;fill:rgb(173,58,58);">s</text>
                <text x="1293.28px" y="157.25px" style="font-family:'IBMPlexSans-Text', 'IBM Plex Sans', sans-serif;font-weight:450;font-size:212.5px;fill:rgb(190,98,98);">e</text>
            </g>
            <g transform="matrix(1.04987,0,0,1.04987,-62.1709,-84.532)">
                <g transform="matrix(-1.01595,-0.372732,-0.344432,0.938811,2395.27,229.326)">
                    <path d="M688.958,1754.49C673.883,1754.49 626.33,1751.7 617.143,1760.75C610.325,1767.47 604.97,1774.82 600.402,1783.82C590.721,1802.89 555.435,1804.67 535.876,1804.67" style="fill:none;stroke:rgb(190,98,98);stroke-width:13.33px;"/>
                </g>
                <g id="_-Kurve-" serif:id="(Kurve)" transform="matrix(1.01331,0.3718,-0.344463,0.9388,996.114,-284.337)">
                    <path d="M688.958,1754.49C673.883,1754.49 626.33,1751.7 617.143,1760.75C610.325,1767.47 604.97,1774.82 600.402,1783.82C590.721,1802.89 555.435,1804.67 535.876,1804.67" style="fill:none;stroke:rgb(104,28,28);stroke-width:13.35px;"/>
                </g>
                <g transform="matrix(-0.804959,-0.756847,-0.684999,0.728544,3322.46,902.115)">
                    <path d="M1028.05,2051.55C1015.51,2051.55 989.927,2046.34 978.707,2051.03C962.336,2057.87 949.999,2071.7 937.94,2083.65C936.305,2085.27 930.89,2087.54 929.326,2088.23C928.166,2088.74 930.962,2087.76 929.326,2088.23C924.994,2089.46 920.516,2090.97 915.823,2091.63C910.587,2092.36 905.118,2092.16 900.057,2092.16" style="fill:none;stroke:rgb(173,58,58);stroke-width:13.18px;"/>
                </g>
                <g transform="matrix(1.1076,0,0,1,-49.7886,-433.089)">
                    <path d="M1028.05,2051.55C1015.51,2051.55 989.927,2046.34 978.707,2051.03C962.336,2057.87 949.999,2071.7 937.94,2083.65C936.305,2085.27 930.89,2087.54 929.326,2088.23C928.166,2088.74 930.962,2087.76 929.326,2088.23C924.994,2089.46 920.516,2090.97 915.823,2091.63C910.587,2092.36 905.118,2092.16 900.057,2092.16" style="fill:none;stroke:rgb(152,9,9);stroke-width:13.16px;"/>
                </g>
                <g transform="matrix(1,0,0,1,-1.34051,5.67697)">
                    <g transform="matrix(4.32136,1.57861,-1.93068,4.64276,2405.64,-2451.7)">
                        <path d="M41.237,792.434L54.23,792.434L75.253,772.772L41.237,792.434Z" style="fill:rgb(108,9,9);stroke:white;stroke-width:0.21px;stroke-miterlimit:10;"/>
                    </g>
                    <g transform="matrix(4.32136,1.57861,-1.93068,4.64276,2291.76,-2177.85)">
                        <path d="M41.237,772.772L54.23,733.448L41.237,733.448L41.237,772.772Z" style="fill:rgb(108,9,9);stroke:white;stroke-width:0.21px;stroke-miterlimit:10;"/>
                    </g>
                    <g transform="matrix(4.32136,1.57861,-1.93068,4.64276,2291.76,-2177.85)">
                        <path d="M75.253,772.772L54.23,733.448L41.237,772.772L75.253,772.772Z" style="fill:rgb(152,9,9);stroke:white;stroke-width:0.21px;stroke-miterlimit:10;"/>
                    </g>
                    <g transform="matrix(4.32136,1.57861,-1.93068,4.64276,2177.88,-1903.99)">
                        <path d="M75.253,733.448L41.237,713.786L75.253,713.786L75.253,733.448Z" style="fill:rgb(152,9,9);stroke:white;stroke-width:0.25px;stroke-miterlimit:10;"/>
                    </g>
                    <g transform="matrix(4.32136,1.57861,-1.93068,4.64276,2177.88,-1903.99)">
                        <path d="M109.269,713.786L75.253,713.786L75.253,733.448L109.269,713.786Z" style="fill:rgb(177,65,65);stroke:white;stroke-width:0.21px;stroke-miterlimit:10;"/>
                    </g>
                    <g transform="matrix(4.32136,1.57861,-1.93068,4.64276,2291.76,-2177.85)">
                        <path d="M96.276,733.448L109.269,733.448L109.269,772.772L96.276,733.448Z" style="fill:rgb(177,65,65);stroke:white;stroke-width:0.21px;stroke-miterlimit:10;"/>
                    </g>
                    <g transform="matrix(4.32136,1.57861,-1.93068,4.64276,2291.76,-2177.85)">
                        <path d="M75.253,772.772L109.269,772.772L96.276,733.448L75.253,772.772Z" style="fill:rgb(177,65,65);stroke:white;stroke-width:0.21px;stroke-miterlimit:10;"/>
                    </g>
                    <g transform="matrix(4.32136,1.57861,-1.93068,4.64276,2405.64,-2451.7)">
                        <path d="M54.23,792.434L96.276,792.434L75.253,772.772L54.23,792.434Z" style="fill:rgb(152,9,9);stroke:white;stroke-width:0.17px;stroke-miterlimit:10;"/>
                    </g>
                    <g transform="matrix(4.32136,1.57861,-1.93068,4.64276,2405.64,-2451.7)">
                        <path d="M109.269,792.434L96.276,792.434L75.253,772.772L109.269,792.434Z" style="fill:rgb(177,65,65);stroke:white;stroke-width:0.21px;stroke-miterlimit:10;"/>
                    </g>
                    <g transform="matrix(4.32136,1.57861,-1.93068,4.64276,2291.76,-2177.85)">
                        <path d="M75.253,772.772L96.276,733.448L54.23,733.448L75.253,772.772Z" style="fill:rgb(152,9,9);stroke:white;stroke-width:0.25px;stroke-miterlimit:10;"/>
                    </g>
                </g>
            </g>
            <g transform="matrix(1.04987,0,0,1.04987,-442.829,-84.8556)">
                <g transform="matrix(-1.01595,-0.372732,-0.344432,0.938811,2395.27,229.326)">
                    <path d="M688.958,1754.49C673.883,1754.49 626.33,1751.7 617.143,1760.75C610.325,1767.47 604.97,1774.82 600.402,1783.82C590.721,1802.89 555.435,1804.67 535.876,1804.67" style="fill:none;stroke:rgb(190,98,98);stroke-width:13.33px;"/>
                </g>
                <g id="_-Kurve-1" serif:id="(Kurve)" transform="matrix(1.01331,0.3718,-0.344463,0.9388,996.114,-284.337)">
                    <path d="M688.958,1754.49C673.883,1754.49 626.33,1751.7 617.143,1760.75C610.325,1767.47 604.97,1774.82 600.402,1783.82C590.721,1802.89 555.435,1804.67 535.876,1804.67" style="fill:none;stroke:rgb(104,28,28);stroke-width:13.35px;"/>
                </g>
                <g transform="matrix(-0.804959,-0.756847,-0.684999,0.728544,3322.46,902.115)">
                    <path d="M1028.05,2051.55C1015.51,2051.55 989.927,2046.34 978.707,2051.03C962.336,2057.87 949.999,2071.7 937.94,2083.65C936.305,2085.27 930.89,2087.54 929.326,2088.23C928.166,2088.74 930.962,2087.76 929.326,2088.23C924.994,2089.46 920.516,2090.97 915.823,2091.63C910.587,2092.36 905.118,2092.16 900.057,2092.16" style="fill:none;stroke:rgb(173,58,58);stroke-width:13.18px;"/>
                </g>
                <g transform="matrix(1.1076,0,0,1,-49.7886,-433.089)">
                    <path d="M1028.05,2051.55C1015.51,2051.55 989.927,2046.34 978.707,2051.03C962.336,2057.87 949.999,2071.7 937.94,2083.65C936.305,2085.27 930.89,2087.54 929.326,2088.23C928.166,2088.74 930.962,2087.76 929.326,2088.23C924.994,2089.46 920.516,2090.97 915.823,2091.63C910.587,2092.36 905.118,2092.16 900.057,2092.16" style="fill:none;stroke:rgb(152,9,9);stroke-width:13.16px;"/>
                </g>
                <g transform="matrix(1,0,0,1,-1.34051,5.67697)">
                    <g transform="matrix(4.32136,1.57861,-1.93068,4.64276,2405.64,-2451.7)">
                        <path d="M41.237,792.434L54.23,792.434L75.253,772.772L41.237,792.434Z" style="fill:rgb(108,9,9);stroke:white;stroke-width:0.21px;stroke-miterlimit:10;"/>
                    </g>
                    <g transform="matrix(4.32136,1.57861,-1.93068,4.64276,2291.76,-2177.85)">
                        <path d="M41.237,772.772L54.23,733.448L41.237,733.448L41.237,772.772Z" style="fill:rgb(108,9,9);stroke:white;stroke-width:0.21px;stroke-miterlimit:10;"/>
                    </g>
                    <g transform="matrix(4.32136,1.57861,-1.93068,4.64276,2291.76,-2177.85)">
                        <path d="M75.253,772.772L54.23,733.448L41.237,772.772L75.253,772.772Z" style="fill:rgb(152,9,9);stroke:white;stroke-width:0.21px;stroke-miterlimit:10;"/>
                    </g>
                    <g transform="matrix(4.32136,1.57861,-1.93068,4.64276,2177.88,-1903.99)">
                        <path d="M75.253,733.448L41.237,713.786L75.253,713.786L75.253,733.448Z" style="fill:rgb(152,9,9);stroke:white;stroke-width:0.25px;stroke-miterlimit:10;"/>
                    </g>
                    <g transform="matrix(4.32136,1.57861,-1.93068,4.64276,2177.88,-1903.99)">
                        <path d="M109.269,713.786L75.253,713.786L75.253,733.448L109.269,713.786Z" style="fill:rgb(177,65,65);stroke:white;stroke-width:0.21px;stroke-miterlimit:10;"/>
                    </g>
                    <g transform="matrix(4.32136,1.57861,-1.93068,4.64276,2291.76,-2177.85)">
                        <path d="M96.276,733.448L109.269,733.448L109.269,772.772L96.276,733.448Z" style="fill:rgb(177,65,65);stroke:white;stroke-width:0.21px;stroke-miterlimit:10;"/>
                    </g>
                    <g transform="matrix(4.32136,1.57861,-1.93068,4.64276,2291.76,-2177.85)">
                        <path d="M75.253,772.772L109.269,772.772L96.276,733.448L75.253,772.772Z" style="fill:rgb(177,65,65);stroke:white;stroke-width:0.21px;stroke-miterlimit:10;"/>
                    </g>
                    <g transform="matrix(4.32136,1.57861,-1.93068,4.64276,2405.64,-2451.7)">
                        <path d="M54.23,792.434L96.276,792.434L75.253,772.772L54.23,792.434Z" style="fill:rgb(152,9,9);stroke:white;stroke-width:0.17px;stroke-miterlimit:10;"/>
                    </g>
                    <g transform="matrix(4.32136,1.57861,-1.93068,4.64276,2405.64,-2451.7)">
                        <path d="M109.269,792.434L96.276,792.434L75.253,772.772L109.269,792.434Z" style="fill:rgb(177,65,65);stroke:white;stroke-width:0.21px;stroke-miterlimit:10;"/>
                    </g>
                    <g transform="matrix(4.32136,1.57861,-1.93068,4.64276,2291.76,-2177.85)">
                        <path d="M75.253,772.772L96.276,733.448L54.23,733.448L75.253,772.772Z" style="fill:rgb(152,9,9);stroke:white;stroke-width:0.25px;stroke-miterlimit:10;"/>
                    </g>
                </g>
            </g>
            <g transform="matrix(0.803734,0,0,0.803734,-122.513,-62.7035)">
                <text x="451.396px" y="2086.05px" style="font-family:'IBMPlexMono-Bold', 'IBM Plex Mono', monospace;font-weight:700;font-size:652.391px;">T</text>
            </g>
            <g transform="matrix(0.651898,0.00643065,-0.00787096,0.797906,487.132,209.654)">
                <path d="M1935.12,1507.06C1942.8,1506.26 1952.2,1502.53 1953,1501.2C1961.14,1487.53 1982.56,1433.65 1985.28,1429.19C1985.46,1428.9 2014.79,1429.43 2015.06,1429.02C2015.21,1428.79 2015.19,1413.95 2015.26,1413.61C2015.32,1413.3 1993.17,1413.2 1991.8,1413.19C1991.66,1413.19 1993.75,1408.53 1996.01,1403.56C1998.58,1397.92 1997.65,1399.85 1997.71,1399.72C1997.83,1399.46 2025.39,1399.74 2027.49,1399.56C2027.78,1399.53 2027.62,1384.67 2027.62,1384.49C2027.63,1384.09 2004.39,1384.51 2004.47,1383.96C2004.65,1382.57 2023.81,1337.06 2025.04,1335.14C2027.41,1331.44 2030.82,1331.39 2033.49,1330.72C2036.24,1330.04 2106.56,1329.48 2111.41,1329.52C2111.73,1329.52 2111.68,1332.07 2111.6,1332.09C2109.98,1332.45 2100.95,1331.87 2100.32,1332.41C2099.11,1333.45 2099.36,1357.05 2100.15,1358.19C2100.96,1359.37 2112.3,1358.27 2112.24,1359.46C2112.13,1361.84 2114.83,1418.7 2115.62,1420.68C2115.93,1421.46 2149.87,1421.11 2150.68,1421.29C2151.31,1421.43 2154.12,1362.4 2155.48,1359.12C2156.38,1356.97 2167.48,1358.8 2167.59,1357.73C2167.86,1355.04 2169.47,1333.69 2168.33,1332.48C2167.9,1332.02 2158.04,1332.3 2158.12,1332.16C2158.86,1330.8 2158.8,1295.7 2157.68,1295.1C2148.68,1290.24 2066.14,1286.19 2043.91,1286.08C1993.64,1285.81 1907.91,1285.11 1908.84,1285.86C1910.22,1286.96 1901.17,1314.19 1895.97,1327.15C1891.33,1338.69 1874.77,1366.49 1875.32,1366.47C1882.3,1366.23 1915.53,1367.2 1915.98,1367.09C1917.48,1366.75 1863.76,1489.17 1863.01,1491.08C1860.85,1496.55 1873.22,1506.12 1878.42,1504.77" style="fill:rgb(190,98,98);"/>
            </g>
        </g>
    </g>
</svg>
