<?xml version="1.0" encoding="UTF-8" standalone="no"?>
<!DOCTYPE svg PUBLIC "-//W3C//DTD SVG 1.1//EN" "http://www.w3.org/Graphics/SVG/1.1/DTD/svg11.dtd">
<svg width="100%" height="100%" viewBox="0 0 1452 1345" version="1.1" xmlns="http://www.w3.org/2000/svg" xmlns:xlink="http://www.w3.org/1999/xlink" xml:space="preserve" xmlns:serif="http://www.serif.com/" style="fill-rule:evenodd;clip-rule:evenodd;stroke-linecap:round;stroke-linejoin:round;stroke-miterlimit:1.5;">
    <g transform="matrix(1,0,0,1,-207.931,-928.488)">
        <g transform="matrix(1.0966,0,0,1.09978,-1026.52,842.158)">
            <path d="M2318.13,1102.8C2329.79,1070.65 2326.53,977.027 2316.49,942.125C2316.49,942.125 2409.24,930.603 2421.91,902.903C2434.58,875.202 2415.7,793.96 2392.52,775.924C2369.34,757.889 2282.82,794.688 2282.82,794.688C2268.09,763.121 2241.64,718.421 2221.59,689.913C2221.59,689.913 2300.16,645.472 2299.69,616.273C2299.22,587.073 2247.25,520.899 2218.77,514.718C2190.29,508.537 2128.81,579.186 2128.81,579.186C2102.47,556.325 2059.64,525.978 2029.7,508.065C2029.7,508.065 2081.34,434.338 2067.49,408.859C2053.64,383.379 1974.86,348.403 1946.6,355.189C1918.34,361.975 1897.95,449.576 1897.95,449.576C1864.56,439.373 1839.18,434.886 1804.51,430.667L1802.47,1061.26L2069.75,1095.57C2149.89,977.969 2235.46,1011.3 2318.13,1102.8Z" style="fill:rgb(31,64,122);"/>
            <clipPath id="_clip1">
                <path d="M2318.13,1102.8C2329.79,1070.65 2326.53,977.027 2316.49,942.125C2316.49,942.125 2409.24,930.603 2421.91,902.903C2434.58,875.202 2415.7,793.96 2392.52,775.924C2369.34,757.889 2282.82,794.688 2282.82,794.688C2268.09,763.121 2241.64,718.421 2221.59,689.913C2221.59,689.913 2300.16,645.472 2299.69,616.273C2299.22,587.073 2247.25,520.899 2218.77,514.718C2190.29,508.537 2128.81,579.186 2128.81,579.186C2102.47,556.325 2059.64,525.978 2029.7,508.065C2029.7,508.065 2081.34,434.338 2067.49,408.859C2053.64,383.379 1974.86,348.403 1946.6,355.189C1918.34,361.975 1897.95,449.576 1897.95,449.576C1864.56,439.373 1839.18,434.886 1804.51,430.667L1802.47,1061.26L2069.75,1095.57C2149.89,977.969 2235.46,1011.3 2318.13,1102.8Z"/>
            </clipPath>
            <g clip-path="url(#_clip1)">
                <ellipse cx="1723.57" cy="1016.88" rx="351.023" ry="350.009" style="fill:white;"/>
            </g>
        </g>
        <g transform="matrix(-5.0594,0,0,1.07385,7544.14,-1007.19)">
            <path d="M1247.56,2871.61C1248.1,2895.12 1256.63,2948.4 1258.86,2957.08L1229.6,2958.69L1247.56,2871.61Z" style="fill:rgb(31,64,122);"/>
        </g>
        <g transform="matrix(1,0,0,1.14543,-11.7084,-1164.82)">
            <rect x="441.527" y="2571.4" width="323.778" height="7.909" style="fill:white;"/>
        </g>
        <g transform="matrix(0,6.00777,5.8531,0,-1577.05,272.204)">
            <rect x="144.949" y="394.054" width="4.938" height="20.239" style="fill:rgb(31,64,122);"/>
        </g>
        <g transform="matrix(5.8531,0,0,6.00777,-74.2382,-981.185)">
            <rect x="137.299" y="379.423" width="20.239" height="1.374" style="fill:rgb(31,64,122);"/>
        </g>
        <g transform="matrix(5.8531,0,0,6.00777,-74.2382,-1408.21)">
            <path d="M137.301,421.889C137.301,421.889 136.832,417.892 140.135,416.614C142.013,415.887 146.937,414.706 147.707,413.771C150.223,410.718 149.34,409.291 149.34,409.291L157.538,409.311L157.538,421.87L137.301,421.889Z" style="fill:rgb(31,64,122);"/>
        </g>
        <g transform="matrix(5.85309,0.00653083,0.0064917,-6.12959,-76.9837,3636.71)">
            <path d="M147.418,424.113L157.537,424.113L157.539,421.874L147.775,421.882L147.418,424.113Z" style="fill:rgb(31,64,122);"/>
        </g>
        <g transform="matrix(0,6.00777,5.8531,0,-1725.2,57.9574)">
            <path d="M144.902,439.605L160.285,439.605L160.285,429.716C160.285,429.716 153.89,430.373 149.777,432.921C144.902,435.94 144.902,439.605 144.902,439.605Z" style="fill:rgb(31,64,122);"/>
        </g>
        <g transform="matrix(5.86958,0,0,6.00777,-75.0802,446.163)">
            <rect x="51.078" y="236.455" width="106.46" height="49.727" style="fill:rgb(31,64,122);"/>
        </g>
        <g transform="matrix(6.92834,0,0,6.00777,-126.074,85.7974)">
            <path d="M51.078,294.964L157.538,294.964L157.538,287.656L48.209,287.656C48.415,292.02 49.404,294.375 51.078,294.964Z" style="fill:rgb(31,64,122);"/>
        </g>
        <g transform="matrix(1.40474,0,0,1.44187,-313.001,-975.065)">
            <rect x="825.303" y="1911.54" width="17.879" height="4.51" style="fill:white;"/>
        </g>
        <g transform="matrix(5.8531,0,0,6.00777,-94.4474,542.012)">
            <path d="M152.244,244.059C152.244,239.242 148.819,236.455 144.457,236.455C140.095,236.455 136.438,239.242 136.438,244.059L136.438,270.246L152.244,270.246L152.244,244.059" style="fill:white;"/>
        </g>
        <g transform="matrix(5.8531,0,0,6.00777,-83.9023,542.309)">
            <path d="M127.413,244.059C127.413,239.242 124.165,236.455 120.03,236.455C115.895,236.455 112.427,239.242 112.427,244.059L112.427,270.246L127.413,270.246L127.413,244.059" style="fill:white;"/>
        </g>
        <g transform="matrix(5.8531,0,0,6.00777,-74.2382,541.902)">
            <path d="M105.5,244.059C105.5,239.242 102.833,236.455 99.437,236.455C96.041,236.455 93.194,239.242 93.194,244.059L93.194,270.246L105.5,270.246L105.5,244.059" style="fill:white;"/>
        </g>
        <g transform="matrix(5.8531,0,0,6.00777,-74.2382,541.902)">
            <path d="M88.228,244.059C88.228,239.242 85.952,236.455 83.053,236.455C80.154,236.455 77.723,239.242 77.723,244.059L77.723,270.246L88.228,270.246L88.228,244.059" style="fill:white;"/>
        </g>
        <g transform="matrix(5.8531,0,0,6.00777,-74.2382,541.902)">
            <path d="M59.54,244.059C59.54,239.242 58.452,236.455 57.066,236.455C55.681,236.455 54.519,239.242 54.519,244.059L54.519,270.246L59.54,270.246L59.54,244.059" style="fill:white;"/>
        </g>
        <g transform="matrix(5.8531,0,0,6.00777,-74.2382,541.902)">
            <path d="M72.757,244.059C72.757,239.242 70.969,236.455 68.692,236.455C66.415,236.455 64.506,239.242 64.506,244.059L64.506,270.246L72.757,270.246L72.757,244.059" style="fill:white;"/>
        </g>
        <g transform="matrix(-1.11245,0,0,6.02925,1022.83,440.444)">
            <rect x="51.078" y="236.455" width="106.46" height="49.727" style="fill:rgb(31,64,122);"/>
        </g>
        <g transform="matrix(-6.30993,2.90896,2.86667,6.55119,384.488,-443.72)">
            <path d="M143.697,276.434L153.568,276.434L53.884,321.206L52.212,317.524L143.697,276.434Z" style="fill:rgb(31,64,122);"/>
        </g>
        <g transform="matrix(2.00828,0,0,1,-1550.65,-794.001)">
            <path d="M1526,2872.43C1520.62,2927.31 1515.33,2949.69 1508.48,2966.82L1471,2967.03C1491.02,2939.48 1509.73,2911.8 1526,2872.43Z" style="fill:rgb(31,64,122);"/>
        </g>
        <g transform="matrix(-5.8531,0,0,6.00777,1698.58,-1527.13)">
            <path d="M145.348,424.853L155.237,424.853L157.538,426.241L145.348,426.241L145.348,424.853Z" style="fill:rgb(31,64,122);"/>
        </g>
        <g transform="matrix(-5.8531,0,0,6.00777,1635.39,-1316.19)">
            <path d="M134.552,407.378L154.768,407.378L157.538,408.587L134.552,408.605L134.552,407.378Z" style="fill:rgb(31,64,122);"/>
        </g>
        <g transform="matrix(5.8531,0,0,6.23865,-74.2382,-1221.03)">
            <rect x="138.252" y="383.323" width="2.365" height="18.382" style="fill:rgb(31,64,122);"/>
        </g>
        <g transform="matrix(-5.8531,0,0,6.19383,1615.84,-1203.76)">
            <path d="M142.996,383.323L145.685,383.323L145.753,401.705L143.043,401.705L142.996,383.323Z" style="fill:rgb(31,64,122);"/>
        </g>
        <g transform="matrix(-5.85141,0.14434,0.148506,6.34269,1643.71,-1284.79)">
            <path d="M149.916,383.365L153.121,383.365L153.602,401.663L150.412,401.74L149.916,383.365Z" style="fill:rgb(31,64,122);"/>
        </g>
        <g transform="matrix(5.8531,0,0,6.00777,-74.2382,-1008.98)">
            <rect x="135.937" y="381.524" width="21.602" height="1.799" style="fill:rgb(31,64,122);"/>
        </g>
        <g transform="matrix(0,6.00777,-5.8531,0,3272.21,272.124)">
            <rect x="144.949" y="394.054" width="4.938" height="20.239" style="fill:rgb(31,64,122);"/>
        </g>
        <g transform="matrix(-5.8531,0,0,6.00777,1769.52,-981.265)">
            <rect x="137.299" y="379.423" width="20.239" height="1.374" style="fill:rgb(31,64,122);"/>
        </g>
        <g transform="matrix(-5.8531,0,0,6.00777,1769.52,-1408.2)">
            <path d="M137.301,421.889C137.301,421.889 136.832,417.892 140.135,416.614C142.013,415.887 146.937,414.706 147.707,413.771C150.223,410.718 149.34,409.291 149.34,409.291L157.538,409.311L157.538,421.87L137.301,421.889Z" style="fill:rgb(31,64,122);"/>
        </g>
        <g transform="matrix(-5.85309,0.00653083,-0.00642756,-6.06902,1771.04,3611.06)">
            <path d="M147.418,424.113L157.537,424.113L157.539,421.874L147.775,421.882L147.418,424.113Z" style="fill:rgb(31,64,122);"/>
        </g>
        <g transform="matrix(0,6.00777,-5.8531,0,3420.44,57.9494)">
            <path d="M144.902,439.605L160.285,439.605L160.285,429.716C160.285,429.716 153.89,430.373 149.777,432.921C144.902,435.94 144.902,439.605 144.902,439.605Z" style="fill:rgb(31,64,122);"/>
        </g>
        <g transform="matrix(5.8531,0,0,6.00777,-3.55797,-1527.18)">
            <path d="M145.348,424.853L155.237,424.853L157.538,426.241L145.348,426.241L145.348,424.853Z" style="fill:rgb(31,64,122);"/>
        </g>
        <g transform="matrix(5.8531,0,0,6.00777,59.3876,-1316.08)">
            <path d="M134.552,407.378L154.768,407.378L157.538,408.587L134.552,408.605L134.552,407.378Z" style="fill:rgb(31,64,122);"/>
        </g>
        <g transform="matrix(-5.8531,0,0,6.40661,1769.77,-1287.84)">
            <rect x="138.252" y="383.323" width="2.365" height="18.382" style="fill:rgb(31,64,122);"/>
        </g>
        <g transform="matrix(5.8531,0,0,6.27521,79.6908,-1235.74)">
            <path d="M142.996,383.323L145.685,383.323L145.753,401.705L143.043,401.705L142.996,383.323Z" style="fill:rgb(31,64,122);"/>
        </g>
        <g transform="matrix(5.84445,0.144168,-0.142725,6.09579,50.581,-1187.28)">
            <path d="M149.916,383.365L153.121,383.365L153.602,401.663L150.412,401.74L149.916,383.365Z" style="fill:rgb(31,64,122);"/>
        </g>
        <g transform="matrix(-5.8531,0,0,6.00777,1769.52,-1009.06)">
            <rect x="135.937" y="381.524" width="21.602" height="1.799" style="fill:rgb(31,64,122);"/>
        </g>
        <g transform="matrix(5.77672,0,0,6.00777,-62.2054,-489.567)">
            <path d="M57.212,377.928C57.212,377.928 58.431,365.449 65.415,352.178C71.114,341.348 81.801,326.935 93.808,318.607C108.62,308.333 123.223,303.46 137.299,300.462L157.538,300.462L157.538,377.928L106.007,377.928L57.212,377.928Z" style="fill:rgb(31,64,122);"/>
        </g>
        <g transform="matrix(1.40474,0,0,1.44187,-10.901,-2432.69)">
            <rect x="672.726" y="2651.54" width="0.666" height="5.599" style="fill:rgb(31,65,121);"/>
        </g>
        <g transform="matrix(-5.8531,0,0,6.00777,1737.02,541.22)">
            <path d="M152.244,244.059C152.244,239.242 148.819,236.455 144.457,236.455C140.095,236.455 136.438,239.242 136.438,244.059L136.438,270.246L152.244,270.246L152.244,244.059" style="fill:white;"/>
        </g>
        <g transform="matrix(1.40474,0,0,1.44187,-316.898,-975.065)">
            <rect x="825.837" y="1964.72" width="23.118" height="6.145" style="fill:white;"/>
        </g>
        <g transform="matrix(9.34413,0,0,1.02182,-6967.96,-226.62)">
            <rect x="825.837" y="1964.72" width="23.118" height="6.145" style="fill:white;"/>
        </g>
        <g transform="matrix(0.771791,0,0,0.802854,32.0636,131.235)">
            <rect x="1056.35" y="1475.31" width="152.278" height="579.295" style="fill:rgb(31,64,122);"/>
        </g>
        <g transform="matrix(1.30918,0,0,0.800226,-101.676,136.024)">
            <path d="M1209.65,2534.57L248.87,2534.57L248.87,2551.34L1206.67,2547.49L1209.65,2534.57Z" style="fill:rgb(31,64,122);"/>
        </g>
        <g transform="matrix(1.14672,0,0,1.16152,-1362.52,-1147.31)">
            <path d="M1558.34,2413.4L1558.34,2472.87L1523.51,2472.87L1523.51,2413.4L1558.34,2413.4ZM1542.62,2364.37C1542.62,2363.71 1542.36,2363.09 1541.9,2362.62C1541.44,2362.16 1540.81,2361.9 1540.16,2361.9C1540.16,2361.91 1540.16,2361.91 1540.16,2361.91C1539.51,2361.91 1538.88,2362.17 1538.42,2362.63C1537.96,2363.09 1537.7,2363.72 1537.7,2364.37C1537.7,2365.68 1537.7,2366.99 1537.7,2368.3C1536.52,2368.48 1535.37,2368.79 1534.26,2369.22C1533.61,2368.09 1532.95,2366.95 1532.3,2365.81C1531.97,2365.25 1531.43,2364.83 1530.8,2364.66C1530.17,2364.49 1529.5,2364.58 1528.93,2364.91C1528.94,2364.92 1528.94,2364.92 1528.94,2364.92C1528.37,2365.24 1527.96,2365.78 1527.79,2366.41C1527.62,2367.04 1527.71,2367.71 1528.04,2368.27C1528.69,2369.41 1529.35,2370.55 1530.01,2371.68C1529.08,2372.43 1528.23,2373.27 1527.49,2374.2C1526.35,2373.54 1525.22,2372.89 1524.08,2372.23C1523.52,2371.9 1522.84,2371.81 1522.21,2371.98C1521.58,2372.15 1521.04,2372.56 1520.72,2373.13C1520.72,2373.13 1520.72,2373.13 1520.72,2373.13C1520.4,2373.7 1520.31,2374.37 1520.48,2374.99C1520.65,2375.62 1521.06,2376.16 1521.62,2376.48C1522.76,2377.14 1523.89,2377.8 1525.03,2378.45C1524.6,2379.56 1524.29,2380.72 1524.11,2381.89C1522.8,2381.89 1521.48,2381.89 1520.17,2381.89C1519.52,2381.89 1518.89,2382.15 1518.43,2382.61C1517.97,2383.07 1517.71,2383.7 1517.71,2384.35C1517.72,2384.35 1517.72,2384.35 1517.72,2384.35C1517.72,2385 1517.98,2385.63 1518.44,2386.09C1518.9,2386.55 1519.52,2386.81 1520.17,2386.8C1521.48,2386.81 1522.8,2386.81 1524.11,2386.81C1524.29,2387.99 1524.6,2389.14 1525.03,2390.25C1523.89,2390.9 1522.76,2391.56 1521.62,2392.21C1521.05,2392.54 1520.64,2393.08 1520.47,2393.71C1520.3,2394.34 1520.39,2395.01 1520.72,2395.58C1520.72,2395.57 1520.72,2395.57 1520.72,2395.57C1521.05,2396.14 1521.59,2396.55 1522.21,2396.72C1522.84,2396.88 1523.51,2396.8 1524.08,2396.47C1525.22,2395.82 1526.35,2395.16 1527.49,2394.5C1528.23,2395.43 1529.08,2396.28 1530.01,2397.02C1529.35,2398.16 1528.69,2399.29 1528.03,2400.43C1527.71,2400.99 1527.62,2401.66 1527.79,2402.3C1527.95,2402.93 1528.37,2403.47 1528.93,2403.79C1528.94,2403.78 1528.94,2403.79 1528.94,2403.79C1529.5,2404.11 1530.17,2404.2 1530.8,2404.03C1531.43,2403.86 1531.97,2403.45 1532.29,2402.89C1532.95,2401.75 1533.61,2400.62 1534.26,2399.48C1535.37,2399.91 1536.52,2400.22 1537.7,2400.4C1537.7,2401.71 1537.7,2403.02 1537.7,2404.34C1537.7,2404.99 1537.95,2405.62 1538.42,2406.08C1538.88,2406.54 1539.5,2406.8 1540.16,2406.8C1540.16,2406.79 1540.16,2406.79 1540.16,2406.79C1540.81,2406.79 1541.43,2406.53 1541.89,2406.07C1542.35,2405.61 1542.61,2404.99 1542.61,2404.34C1542.62,2403.02 1542.62,2401.71 1542.61,2400.4C1543.79,2400.22 1544.94,2399.91 1546.06,2399.48C1546.71,2400.62 1547.36,2401.75 1548.02,2402.89C1548.35,2403.45 1548.88,2403.87 1549.51,2404.04C1550.14,2404.21 1550.82,2404.12 1551.38,2403.79C1551.38,2403.79 1551.38,2403.78 1551.38,2403.78C1551.94,2403.46 1552.35,2402.92 1552.52,2402.29C1552.69,2401.66 1552.6,2400.99 1552.28,2400.43C1551.62,2399.29 1550.97,2398.16 1550.31,2397.02C1551.24,2396.28 1552.08,2395.43 1552.83,2394.5C1553.96,2395.16 1555.1,2395.82 1556.24,2396.47C1556.8,2396.8 1557.47,2396.89 1558.1,2396.72C1558.73,2396.55 1559.27,2396.14 1559.6,2395.58C1559.59,2395.57 1559.59,2395.57 1559.59,2395.57C1559.92,2395.01 1560.01,2394.34 1559.84,2393.71C1559.67,2393.08 1559.26,2392.54 1558.69,2392.22C1557.56,2391.56 1556.42,2390.9 1555.28,2390.25C1555.72,2389.14 1556.03,2387.99 1556.21,2386.81C1557.52,2386.81 1558.83,2386.81 1560.14,2386.81C1560.8,2386.81 1561.42,2386.55 1561.88,2386.09C1562.35,2385.63 1562.61,2385.01 1562.61,2384.35C1562.6,2384.35 1562.6,2384.35 1562.6,2384.35C1562.6,2383.7 1562.34,2383.08 1561.88,2382.62C1561.42,2382.16 1560.79,2381.9 1560.14,2381.9C1558.83,2381.89 1557.52,2381.89 1556.21,2381.89C1556.03,2380.72 1555.72,2379.56 1555.28,2378.45C1556.42,2377.8 1557.56,2377.14 1558.69,2376.49C1559.26,2376.16 1559.67,2375.63 1559.84,2375C1560.01,2374.37 1559.92,2373.69 1559.6,2373.13C1559.59,2373.13 1559.59,2373.13 1559.59,2373.13C1559.27,2372.57 1558.73,2372.16 1558.1,2371.99C1557.47,2371.82 1556.8,2371.91 1556.24,2372.23C1555.1,2372.89 1553.96,2373.54 1552.83,2374.2C1552.08,2373.27 1551.24,2372.43 1550.31,2371.68C1550.97,2370.55 1551.62,2369.41 1552.28,2368.27C1552.61,2367.71 1552.7,2367.04 1552.53,2366.41C1552.36,2365.78 1551.95,2365.24 1551.38,2364.91C1551.38,2364.92 1551.38,2364.92 1551.38,2364.92C1550.81,2364.59 1550.14,2364.5 1549.51,2364.67C1548.89,2364.84 1548.35,2365.25 1548.03,2365.82C1547.36,2366.95 1546.71,2368.09 1546.06,2369.22C1544.94,2368.79 1543.79,2368.48 1542.61,2368.3C1542.62,2366.99 1542.62,2365.68 1542.62,2364.37ZM1540.16,2375.05C1545.29,2375.05 1549.46,2379.22 1549.46,2384.35C1549.46,2389.49 1545.29,2393.66 1540.16,2393.66C1535.02,2393.66 1530.85,2389.49 1530.85,2384.35C1530.85,2379.22 1535.02,2375.05 1540.16,2375.05Z" style="fill:white;"/>
        </g>
        <g transform="matrix(1,0,0,1,-632.661,-925.403)">
            <text x="1106.9px" y="2653.55px" style="font-family:'Arial-Black', 'Arial Black', sans-serif;font-weight:900;font-size:155.467px;fill:white;">G</text>
            <text x="1265.57px" y="2653.55px" style="font-family:'Arial-Black', 'Arial Black', sans-serif;font-weight:900;font-size:155.467px;fill:white;">E</text>
            <text x="1407.01px" y="2653.55px" style="font-family:'Arial-Black', 'Arial Black', sans-serif;font-weight:900;font-size:155.467px;fill:white;">M</text>
        </g>
        <g transform="matrix(1.38083,0,0,1.27794,-212.326,-1528.02)">
            <rect x="526.791" y="2649.42" width="326.685" height="6.928" style="fill:white;"/>
        </g>
        <g transform="matrix(1,0,0,1,-311.76,385.769)">
            <g transform="matrix(1,0,0,1,4.84237,-1.56938)">
                <path d="M1957.7,1587.27C1822.02,1585.89 1823.82,1782.18 1673.68,1778.31C1659.31,1777.94 1636.63,1779.89 1623.66,1772.91C1537.87,1726.74 1531.41,1609.29 1423.93,1589.57C1387.41,1582.87 1353.92,1594.66 1325.3,1617.81C1303.79,1635.2 1289.83,1660.01 1273.65,1681.97" style="fill:none;stroke:rgb(31,64,122);stroke-width:16.67px;"/>
                <g transform="matrix(1,0,0,-1,-0.237472,3365.02)">
                    <path d="M1957.7,1587.27C1822.02,1585.89 1823.82,1782.18 1673.68,1778.31C1659.31,1777.94 1636.63,1779.89 1623.66,1772.91C1537.87,1726.74 1531.41,1609.29 1423.93,1589.57C1387.41,1582.87 1353.92,1594.66 1325.3,1617.81C1303.79,1635.2 1289.83,1660.01 1273.65,1681.97" style="fill:none;stroke:rgb(31,64,122);stroke-width:16.67px;"/>
                </g>
            </g>
            <path d="M1332.61,1617.07C1332.25,1660.02 1332.48,1702.99 1332.47,1745.95" style="fill:none;stroke:rgb(31,64,122);stroke-width:16.67px;"/>
            <path d="M1387.76,1591.18C1388.19,1650.13 1387.86,1709.08 1388.83,1768.03" style="fill:none;stroke:rgb(31,64,122);stroke-width:16.67px;"/>
            <path d="M1440.63,1595.41C1440.11,1653.1 1440.2,1710.75 1439.97,1768.44" style="fill:none;stroke:rgb(31,64,122);stroke-width:16.67px;"/>
            <path d="M1492.78,1619.44C1493.16,1660.52 1493.02,1701.63 1492.79,1742.71" style="fill:none;stroke:rgb(31,64,122);stroke-width:16.67px;"/>
            <path d="M1604.96,1614.06C1605.03,1659.99 1606.19,1705.93 1606.49,1751.86" style="fill:none;stroke:rgb(31,64,122);stroke-width:16.67px;"/>
            <path d="M1657.98,1587.31C1657.9,1648.71 1661.65,1711.55 1658.46,1772.77" style="fill:none;stroke:rgb(31,64,122);stroke-width:16.67px;"/>
            <path d="M1709.17,1590.41C1708.77,1651.71 1712.39,1713.1 1710.1,1774.4" style="fill:none;stroke:rgb(31,64,122);stroke-width:16.67px;"/>
            <path d="M1766.92,1612.72C1766.92,1657.46 1768.71,1702.02 1769.84,1746.73" style="fill:none;stroke:rgb(31,64,122);stroke-width:16.67px;"/>
            <path d="M1882.81,1617.06C1881.82,1658.78 1882.73,1700.6 1882.12,1742.36" style="fill:none;stroke:rgb(31,64,122);stroke-width:16.67px;"/>
            <path d="M1935.18,1590.43C1934.28,1650.04 1937.08,1709.57 1936.61,1769.2" style="fill:none;stroke:rgb(31,64,122);stroke-width:16.67px;"/>
        </g>
        <g transform="matrix(1,0,0,1,-864.555,721.431)">
            <text x="1087.67px" y="1550.53px" style="font-family:'Arial-Black', 'Arial Black', sans-serif;font-weight:900;font-size:99.596px;fill:rgb(31,64,122);">TEAM ETH Zuric<tspan x="1976.68px 2043.12px " y="1550.53px 1550.53px ">h </tspan>2019</text>
        </g>
    </g>
</svg>
